<?xml version="1.0" encoding="UTF-8"?>
<svg version="1.1" xmlns="http://www.w3.org/2000/svg" width="520" height="160">
<path d="M0 0 C171.6 0 343.2 0 520 0 C520 52.8 520 105.6 520 160 C348.4 160 176.8 160 0 160 C0 107.2 0 54.4 0 0 Z " fill="#F8F8F9" transform="translate(0,0)"/>
<path d="M0 0 C2.3425689 3.51385335 3.51154159 7.12354326 4.8203125 11.09765625 C5.08383514 11.88772568 5.34735779 12.6777951 5.61886597 13.49180603 C6.17401512 15.15959125 6.7269525 16.82811409 7.27783203 18.49731445 C8.12354069 21.05808127 8.97723713 23.61608161 9.83203125 26.17382812 C10.37026775 27.79411276 10.90804401 29.41455038 11.4453125 31.03515625 C11.70152374 31.80287857 11.95773499 32.57060089 12.22171021 33.36158752 C14 38.76895966 14 38.76895966 14 41 C28.85 41 43.7 41 59 41 C53.37621667 46.62378333 53.37621667 46.62378333 49.9609375 49.05078125 C49.22037109 49.58098877 48.47980469 50.11119629 47.71679688 50.6574707 C46.94400391 51.20363037 46.17121094 51.74979004 45.375 52.3125 C43.76802121 53.45804166 42.16125004 54.60387464 40.5546875 55.75 C39.77706055 56.30300781 38.99943359 56.85601562 38.19824219 57.42578125 C36.2672265 58.80863211 34.35158398 60.20834164 32.4453125 61.625 C31.47335938 62.346875 30.50140625 63.06875 29.5 63.8125 C28.24703125 64.75029297 28.24703125 64.75029297 26.96875 65.70703125 C25 67 25 67 23 67 C27.62 80.86 32.24 94.72 37 109 C33.58559071 109 32.95892672 108.50815004 30.296875 106.54296875 C29.57032715 106.0121167 28.8437793 105.48126465 28.09521484 104.93432617 C27.32129395 104.35787354 26.54737305 103.7814209 25.75 103.1875 C24.95674316 102.60524658 24.16348633 102.02299316 23.34619141 101.4230957 C21.70481967 100.21736033 20.06567966 99.00858139 18.42871094 97.796875 C16.11667178 96.08631929 13.79824202 94.38493986 11.4765625 92.6875 C7.97999811 90.1309116 4.48854089 87.56752493 1 85 C-1.82771326 86.33659456 -4.3118935 87.84356493 -6.8359375 89.6875 C-7.56441895 90.21706299 -8.29290039 90.74662598 -9.04345703 91.29223633 C-9.81286621 91.85579834 -10.58227539 92.41936035 -11.375 93 C-12.98414079 94.17089485 -14.59351889 95.34146364 -16.203125 96.51171875 C-17.00556641 97.09614746 -17.80800781 97.68057617 -18.63476562 98.28271484 C-22.11795498 100.8116944 -25.61966855 103.31434198 -29.125 105.8125 C-29.72231934 106.23853516 -30.31963867 106.66457031 -30.93505859 107.10351562 C-32.28972137 108.06945612 -33.64480571 109.03480535 -35 110 C-36.37017888 105.88946336 -34.91536555 103.13464573 -33.5078125 99.2265625 C-33.24241669 98.46580414 -32.97702087 97.70504578 -32.70358276 96.92123413 C-31.85257373 94.48606736 -30.98944044 92.05542787 -30.125 89.625 C-29.26969446 87.20107277 -28.41700884 84.77627335 -27.56784058 82.35018921 C-27.03876315 80.84065514 -26.50582763 79.33246624 -25.96853638 77.82583618 C-24.70547121 74.24181234 -23.61570535 70.75387571 -23 67 C-23.58612061 66.72019287 -24.17224121 66.44038574 -24.77612305 66.15209961 C-26.84900015 65.07822684 -28.67977488 63.9145774 -30.58203125 62.56640625 C-31.26015869 62.08727783 -31.93828613 61.60814941 -32.63696289 61.11450195 C-33.35489014 60.60234131 -34.07281738 60.09018066 -34.8125 59.5625 C-35.5542749 59.03551514 -36.2960498 58.50853027 -37.06030273 57.96557617 C-42.24546337 54.27258771 -47.41434248 50.55689865 -52.5625 46.8125 C-53.21130127 46.34336182 -53.86010254 45.87422363 -54.52856445 45.39086914 C-56.03791575 44.28590774 -57.52206212 43.14663885 -59 42 C-59 41.67 -59 41.34 -59 41 C-36.725 40.505 -36.725 40.505 -14 40 C-9.76517769 27.58475545 -9.76517769 27.58475545 -5.53344727 15.16845703 C-5.00287923 13.6148705 -4.47220612 12.06131984 -3.94140625 10.5078125 C-3.66582886 9.69755615 -3.39025146 8.8872998 -3.10632324 8.05249023 C-1.1140718 2.2281436 -1.1140718 2.2281436 0 0 Z " fill="#05B77D" transform="translate(65,21)"/>
<path d="M0 0 C6.05514823 2.57614656 9.2135979 6.85195506 11.75 12.8125 C14.17079653 20.75203546 13.42349359 29.19006535 10.01953125 36.68359375 C7.22713471 41.36622794 3.05328584 44.45584548 -2.25 45.8125 C-8.88153743 46.64144218 -13.62741478 45.38398908 -19.25 41.8125 C-19.58 41.4825 -19.91 41.1525 -20.25 40.8125 C-20.58 47.4125 -20.91 54.0125 -21.25 60.8125 C-24.55 60.8125 -27.85 60.8125 -31.25 60.8125 C-31.25 41.0125 -31.25 21.2125 -31.25 0.8125 C-28.28 0.8125 -25.31 0.8125 -22.25 0.8125 C-21.92 1.8025 -21.59 2.7925 -21.25 3.8125 C-20.77691406 3.4515625 -20.30382812 3.090625 -19.81640625 2.71875 C-13.16830372 -1.94658511 -7.70259509 -2.50479126 0 0 Z " fill="#1D1E1F" transform="translate(369.25,79.1875)"/>
<path d="M0 0 C4.91002746 3.04896867 8.79305369 7.44966123 10.49609375 13.03515625 C12.13765114 21.09767261 11.34797902 29.16853416 6.9375 36.203125 C1.7740296 41.50941479 -4.04757784 44.19981636 -11.4375 44.515625 C-18.63208516 44.31041032 -24.33086296 41.8331962 -29.5859375 36.9140625 C-34.48657955 31.23554076 -34.5531389 24.55478988 -34.3359375 17.3203125 C-33.65454064 9.55238827 -31.13616083 5.65738805 -25.1953125 0.6484375 C-17.40983851 -4.62743315 -8.19322968 -4.15513791 0 0 Z " fill="#1E2021" transform="translate(460.0625,80.796875)"/>
<path d="M0 0 C16.5 0 33 0 50 0 C50 3.3 50 6.6 50 10 C43.4 10 36.8 10 30 10 C30 27.16 30 44.32 30 62 C26.37 62 22.74 62 19 62 C19 44.84 19 27.68 19 10 C12.73 10 6.46 10 0 10 C0 6.7 0 3.4 0 0 Z " fill="#242527" transform="translate(136,62)"/>
<path d="M0 0 C3.38420973 1.81757156 4.91927365 3.77277 6.94921875 7.046875 C6.94921875 8.696875 6.94921875 10.346875 6.94921875 12.046875 C3.64921875 12.046875 0.34921875 12.046875 -3.05078125 12.046875 C-3.71078125 10.726875 -4.37078125 9.406875 -5.05078125 8.046875 C-7.85235573 7.11301684 -9.70525928 6.88332905 -12.61328125 6.859375 C-13.39832031 6.84519531 -14.18335938 6.83101562 -14.9921875 6.81640625 C-17.27513575 6.85519991 -17.27513575 6.85519991 -19.05078125 9.046875 C-19.21765573 11.63041718 -19.21765573 11.63041718 -19.05078125 14.046875 C-17.4575 14.42779297 -17.4575 14.42779297 -15.83203125 14.81640625 C3.54545455 19.50273438 3.54545455 19.50273438 7.44921875 23.796875 C9.20667172 27.60468978 9.47742156 29.89671004 8.94921875 34.046875 C7.07422862 37.97542575 4.88433465 41.16957432 0.85546875 42.99609375 C-6.90896555 45.37836337 -14.84154462 46.84935127 -22.48828125 43.359375 C-25.81852966 41.40763105 -28.08298688 39.43148131 -30.05078125 36.046875 C-30.80078125 32.234375 -30.80078125 32.234375 -31.05078125 29.046875 C-27.75078125 29.046875 -24.45078125 29.046875 -21.05078125 29.046875 C-20.59703125 30.01625 -20.14328125 30.985625 -19.67578125 31.984375 C-18.39291904 35.11767082 -18.39291904 35.11767082 -16.05078125 36.046875 C-14.42912373 36.16835805 -12.80193798 36.22231152 -11.17578125 36.234375 C-10.31210937 36.24855469 -9.4484375 36.26273438 -8.55859375 36.27734375 C-5.92665245 36.03546752 -4.31097581 35.37671041 -2.05078125 34.046875 C-2.38078125 32.066875 -2.71078125 30.086875 -3.05078125 28.046875 C-4.20835937 27.72074219 -5.3659375 27.39460938 -6.55859375 27.05859375 C-8.09774459 26.61749564 -9.6368022 26.17607211 -11.17578125 25.734375 C-11.93632812 25.52103516 -12.696875 25.30769531 -13.48046875 25.08789062 C-20.17037594 23.15589157 -26.32743885 21.34791598 -30.05078125 15.046875 C-30.53363513 11.18404396 -30.41390961 8.8457574 -28.80078125 5.296875 C-21.80842465 -3.69329777 -9.99616905 -3.80464603 0 0 Z " fill="#1E2122" transform="translate(293.05078125,79.953125)"/>
<path d="M0 0 C3.3 0 6.6 0 10 0 C10.01458252 0.9787207 10.02916504 1.95744141 10.04418945 2.96582031 C10.10225106 6.60404626 10.1794826 10.24165836 10.26245117 13.87939453 C10.29566372 15.45253522 10.32370717 17.02579401 10.34643555 18.59912109 C10.38005028 20.86346672 10.43236624 23.12673365 10.48828125 25.390625 C10.49467117 26.09181458 10.5010611 26.79300415 10.50764465 27.51544189 C10.62958438 31.58365644 11.03630197 34.10782546 14 37 C16.09387221 37.66699474 16.09387221 37.66699474 18.375 37.5625 C19.50035156 37.59537109 19.50035156 37.59537109 20.6484375 37.62890625 C24.21217808 36.67581284 25.67918275 34.82259639 28 32 C28.7583207 28.55050601 28.7583207 28.55050601 28.671875 24.765625 C28.69099945 23.74767853 28.69099945 23.74767853 28.71051025 22.70916748 C28.74666735 20.55568056 28.74951828 18.40376308 28.75 16.25 C28.77160261 14.08253821 28.80000506 11.91531268 28.83233643 9.74798584 C28.85819887 7.79207312 28.86652892 5.83595215 28.87402344 3.87988281 C29 1 29 1 30 0 C32.97 0 35.94 0 39 0 C39 14.52 39 29.04 39 44 C36.03 44 33.06 44 30 44 C30 42.35 30 40.7 30 39 C29.34 39 28.68 39 28 39 C27.79375 39.598125 27.5875 40.19625 27.375 40.8125 C25.39531636 43.9619967 23.46892258 44.71521386 20 46 C13.39726368 46.62883203 8.66358463 45.6529406 3.1875 41.6875 C-0.16815632 36.91893576 -0.27677002 31.60094581 -0.1953125 25.9765625 C-0.1924826 25.23038666 -0.18965271 24.48421082 -0.18673706 23.71542358 C-0.17561687 21.35178012 -0.15052821 18.98852732 -0.125 16.625 C-0.11495962 15.01432842 -0.10583562 13.40365085 -0.09765625 11.79296875 C-0.0757044 7.86183056 -0.04123185 3.93098133 0 0 Z " fill="#1F2021" transform="translate(216,79)"/>
<path d="M0 0 C3.3 0 6.6 0 10 0 C10 4.29 10 8.58 10 13 C12.97 13 15.94 13 19 13 C19 15.64 19 18.28 19 21 C16.03 21 13.06 21 10 21 C10.33 30.24 10.66 39.48 11 49 C13.64 49.33 16.28 49.66 19 50 C19 52.64 19 55.28 19 58 C17.10489301 58.08160748 15.20875496 58.13946459 13.3125 58.1875 C11.72888672 58.23970703 11.72888672 58.23970703 10.11328125 58.29296875 C6.55898906 57.9584996 4.80290251 57.18439863 2 55 C-0.39027321 51.45005342 -0.23088663 48.24462224 -0.1953125 44.046875 C-0.19106766 43.05654266 -0.19106766 43.05654266 -0.18673706 42.04620361 C-0.17558415 39.94728103 -0.15048946 37.84879258 -0.125 35.75 C-0.11496384 34.32292285 -0.1058391 32.89583898 -0.09765625 31.46875 C-0.07566111 27.97902672 -0.04116536 24.48955577 0 21 C-2.31 21 -4.62 21 -7 21 C-7 18.36 -7 15.72 -7 13 C-4.69 13 -2.38 13 0 13 C0 8.71 0 4.42 0 0 Z " fill="#212224" transform="translate(481,66)"/>
<path d="M0 0 C3.3 0 6.6 0 10 0 C10 4.29 10 8.58 10 13 C12.97 13 15.94 13 19 13 C19 15.64 19 18.28 19 21 C16.03 21 13.06 21 10 21 C10.33 30.24 10.66 39.48 11 49 C13.64 49.33 16.28 49.66 19 50 C19 52.64 19 55.28 19 58 C16.93867858 58.10864945 14.87568679 58.18588321 12.8125 58.25 C11.66394531 58.29640625 10.51539063 58.3428125 9.33203125 58.390625 C5.36020138 57.9249943 3.81228515 56.77629613 1 54 C-0.48679725 51.02640551 -0.11112605 48.33700821 -0.09765625 45.0234375 C-0.0962413 44.33819 -0.09482635 43.6529425 -0.09336853 42.94692993 C-0.08776675 40.75624239 -0.07521406 38.5656567 -0.0625 36.375 C-0.05748522 34.89062648 -0.05292228 33.40625135 -0.04882812 31.921875 C-0.03779677 28.28121685 -0.02053099 24.64061836 0 21 C-2.31 21 -4.62 21 -7 21 C-7 18.69 -7 16.38 -7 14 C-4.69 14 -2.38 14 0 14 C0 9.38 0 4.76 0 0 Z " fill="#1D2122" transform="translate(312,66)"/>
<path d="M0 0 C4.59177808 1.87845467 6.88802807 4.54139258 9 9 C9.79388396 15.43046008 9.92817364 21.58182946 6 27 C3.7683496 29.49419751 2.17859175 30.78999638 -1.1484375 31.3828125 C-4.989475 31.57422633 -7.43394252 31.29533434 -10.875 29.5 C-15.18843537 24.42537015 -16.59515664 18.7843189 -16.35546875 12.17578125 C-15.6145946 7.64098015 -13.31161913 4.45214975 -10.25 1.0625 C-6.86100661 -0.53785799 -3.63568427 -0.52249355 0 0 Z " fill="#F3F4F5" transform="translate(363,86)"/>
<path d="M0 0 C3.9454715 1.8968613 5.65184731 3.40814042 7.875 7.1875 C9.69070878 13.34073531 9.99126109 18.44034637 7.3125 24.375 C5.38172326 27.75217744 3.75453003 29.63471635 0 31 C-6.50789096 31.82639885 -6.50789096 31.82639885 -9.77734375 30.015625 C-12.70059208 27.69989772 -14.66779377 25.45162524 -16 22 C-16.65219956 16.13020395 -16.8265484 10.77554842 -14.3125 5.375 C-9.8070986 0.74783099 -6.55157221 -0.80457904 0 0 Z " fill="#F6F6F7" transform="translate(452,86)"/>
<path d="M0 0 C3.3 0 6.6 0 10 0 C10 20.46 10 40.92 10 62 C6.7 62 3.4 62 0 62 C0 41.54 0 21.08 0 0 Z " fill="#1F2122" transform="translate(408,62)"/>
<path d="M0 0 C2.07770237 2.07770237 2.52612402 3.08920046 3.42041016 5.80712891 C3.68052887 6.58778717 3.94064758 7.36844543 4.20864868 8.17276001 C4.48268524 9.01551483 4.7567218 9.85826965 5.0390625 10.7265625 C5.32478119 11.58937836 5.61049988 12.45219421 5.90487671 13.34115601 C6.81722528 16.10061325 7.72119503 18.86273408 8.625 21.625 C9.24163813 23.49497292 9.85881886 25.364767 10.4765625 27.234375 C11.99068184 31.82086432 13.49729172 36.40975995 15 41 C11.58559071 41 10.95892672 40.50815004 8.296875 38.54296875 C7.57032715 38.0121167 6.8437793 37.48126465 6.09521484 36.93432617 C4.9343335 36.06964722 4.9343335 36.06964722 3.75 35.1875 C2.95674316 34.60524658 2.16348633 34.02299316 1.34619141 33.4230957 C-0.29518033 32.21736033 -1.93432034 31.00858139 -3.57128906 29.796875 C-5.88332822 28.08631929 -8.20175798 26.38493986 -10.5234375 24.6875 C-14.02000189 22.1309116 -17.51145911 19.56752493 -21 17 C-19.86039398 13.58118194 -19.16144643 13.13286896 -16.2890625 11.15234375 C-15.53882812 10.62962891 -14.78859375 10.10691406 -14.015625 9.56835938 C-13.22671875 9.03017578 -12.4378125 8.49199219 -11.625 7.9375 C-10.84382813 7.39544922 -10.06265625 6.85339844 -9.2578125 6.29492188 C-6.1891947 4.16948369 -3.10592298 2.07061532 0 0 Z " fill="#08B77E" transform="translate(87,89)"/>
<path d="M0 0 C0 3.3 0 6.6 0 10 C-3.66210938 10.09765625 -3.66210938 10.09765625 -7.32421875 10.1953125 C-10.33719853 11.10140569 -12.11071367 12.27021717 -14.02026367 14.79345703 C-16.29883732 19.92521596 -15.78760508 25.85939115 -15.8125 31.375 C-15.83763672 32.68339844 -15.86277344 33.99179688 -15.88867188 35.33984375 C-15.94743747 38.56019823 -15.9837975 41.77919642 -16 45 C-19.3 45 -22.6 45 -26 45 C-26 30.81 -26 16.62 -26 2 C-23.03 2 -20.06 2 -17 2 C-16.67 3.65 -16.34 5.3 -16 7 C-15.2575 6.21625 -14.515 5.4325 -13.75 4.625 C-9.08791065 0.17482381 -6.46734065 -0.24874387 0 0 Z " fill="#1F2021" transform="translate(210,78)"/>
<path d="M0 0 C2.97 0 5.94 0 9 0 C9 14.19 9 28.38 9 43 C6.03 43 3.06 43 0 43 C0 28.81 0 14.62 0 0 Z " fill="#191919" transform="translate(390,80)"/>
<path d="M0 0 C3.00617269 3.00617269 2.59585316 5.82381598 3 10 C-0.07909767 10.86996586 -3.16378631 11.71815852 -6.25 12.5625 C-7.12269531 12.80935547 -7.99539062 13.05621094 -8.89453125 13.31054688 C-9.73886719 13.53935547 -10.58320312 13.76816406 -11.453125 14.00390625 C-12.22817383 14.21861572 -13.00322266 14.4333252 -13.80175781 14.65454102 C-16.19024018 15.0298967 -17.720964 14.74681558 -20 14 C-17.22962269 12.04102092 -14.45861941 10.08292915 -11.6875 8.125 C-10.90181641 7.56941406 -10.11613281 7.01382813 -9.30664062 6.44140625 C-8.54931641 5.90644531 -7.79199219 5.37148437 -7.01171875 4.8203125 C-5.96697388 4.08192139 -5.96697388 4.08192139 -4.90112305 3.32861328 C-3.28238541 2.19734704 -1.64318344 1.09545562 0 0 Z " fill="#1F393F" transform="translate(87,89)"/>
<path d="M0 0 C2.97 0 5.94 0 9 0 C9 2.97 9 5.94 9 9 C6.03 9 3.06 9 0 9 C0 6.03 0 3.06 0 0 Z " fill="#1C1F20" transform="translate(390,63)"/>
</svg>
